<mxfile host="app.diagrams.net" modified="2023-12-06T19:24:12.229Z" agent="Mozilla/5.0 (X11; Linux x86_64) AppleWebKit/537.36 (KHTML, like Gecko) Chrome/119.0.0.0 Safari/537.36" etag="KNEuEXmyUE4jPOwxrLGq" version="22.1.7" type="device">
  <diagram name="Сторінка-1" id="6hSSuIx6LPIKqi1wZvSV">
    <mxGraphModel dx="1400" dy="717" grid="1" gridSize="10" guides="1" tooltips="1" connect="1" arrows="1" fold="1" page="1" pageScale="1" pageWidth="1169" pageHeight="827" math="0" shadow="0">
      <root>
        <mxCell id="0" />
        <mxCell id="1" parent="0" />
        <mxCell id="R-gP6RwH8Rs_ocmitFq0-1" value="Actor" style="shape=umlActor;verticalLabelPosition=bottom;verticalAlign=top;html=1;outlineConnect=0;" vertex="1" parent="1">
          <mxGeometry x="50" y="130" width="30" height="60" as="geometry" />
        </mxCell>
        <mxCell id="R-gP6RwH8Rs_ocmitFq0-2" value="Router" style="shape=process;whiteSpace=wrap;html=1;backgroundOutline=1;" vertex="1" parent="1">
          <mxGeometry x="160" y="120" width="160" height="80" as="geometry" />
        </mxCell>
        <mxCell id="R-gP6RwH8Rs_ocmitFq0-3" value="Controller" style="shape=process;whiteSpace=wrap;html=1;backgroundOutline=1;" vertex="1" parent="1">
          <mxGeometry x="360" y="120" width="160" height="80" as="geometry" />
        </mxCell>
        <mxCell id="R-gP6RwH8Rs_ocmitFq0-4" value="MiddleWare" style="shape=process;whiteSpace=wrap;html=1;backgroundOutline=1;" vertex="1" parent="1">
          <mxGeometry x="290" y="20" width="120" height="60" as="geometry" />
        </mxCell>
        <mxCell id="R-gP6RwH8Rs_ocmitFq0-5" value="Service" style="shape=process;whiteSpace=wrap;html=1;backgroundOutline=1;" vertex="1" parent="1">
          <mxGeometry x="560" y="120" width="160" height="80" as="geometry" />
        </mxCell>
        <mxCell id="R-gP6RwH8Rs_ocmitFq0-6" value="Repository" style="shape=process;whiteSpace=wrap;html=1;backgroundOutline=1;" vertex="1" parent="1">
          <mxGeometry x="760" y="120" width="160" height="80" as="geometry" />
        </mxCell>
        <mxCell id="R-gP6RwH8Rs_ocmitFq0-7" value="DB" style="shape=cylinder3;whiteSpace=wrap;html=1;boundedLbl=1;backgroundOutline=1;size=15;fillColor=#f8cecc;strokeColor=#b85450;" vertex="1" parent="1">
          <mxGeometry x="960" y="120" width="60" height="80" as="geometry" />
        </mxCell>
        <mxCell id="R-gP6RwH8Rs_ocmitFq0-8" value="HTTP&lt;br&gt;- GET - Brouser&lt;br&gt;- XMLHhhpRequest&lt;br&gt;fetch&lt;br&gt;axios&lt;br&gt;jquery&lt;br&gt;....&lt;br&gt;" style="text;html=1;strokeColor=none;fillColor=none;align=center;verticalAlign=middle;whiteSpace=wrap;rounded=0;" vertex="1" parent="1">
          <mxGeometry x="80" y="30" width="100" height="70" as="geometry" />
        </mxCell>
        <mxCell id="R-gP6RwH8Rs_ocmitFq0-11" style="edgeStyle=orthogonalEdgeStyle;rounded=0;orthogonalLoop=1;jettySize=auto;html=1;" edge="1" parent="1" source="R-gP6RwH8Rs_ocmitFq0-10">
          <mxGeometry relative="1" as="geometry">
            <mxPoint x="69.99999999999989" y="219.9999999999999" as="targetPoint" />
          </mxGeometry>
        </mxCell>
        <mxCell id="R-gP6RwH8Rs_ocmitFq0-10" value="WebSocket" style="shape=process;whiteSpace=wrap;html=1;backgroundOutline=1;fillColor=#f8cecc;strokeColor=#b85450;" vertex="1" parent="1">
          <mxGeometry x="160" y="240" width="160" height="80" as="geometry" />
        </mxCell>
        <mxCell id="R-gP6RwH8Rs_ocmitFq0-12" value="Cache&lt;br&gt;- Redis" style="ellipse;shape=cloud;whiteSpace=wrap;html=1;fillColor=#d5e8d4;strokeColor=#82b366;" vertex="1" parent="1">
          <mxGeometry x="450" y="150" width="190" height="120" as="geometry" />
        </mxCell>
        <mxCell id="R-gP6RwH8Rs_ocmitFq0-13" value="Actor" style="shape=umlActor;verticalLabelPosition=bottom;verticalAlign=top;html=1;outlineConnect=0;" vertex="1" parent="1">
          <mxGeometry x="80" y="480" width="30" height="60" as="geometry" />
        </mxCell>
        <mxCell id="R-gP6RwH8Rs_ocmitFq0-14" value="Controller" style="shape=process;whiteSpace=wrap;html=1;backgroundOutline=1;fillColor=#dae8fc;strokeColor=#6c8ebf;" vertex="1" parent="1">
          <mxGeometry x="600" y="400" width="160" height="80" as="geometry" />
        </mxCell>
        <mxCell id="R-gP6RwH8Rs_ocmitFq0-15" value="Controller" style="shape=process;whiteSpace=wrap;html=1;backgroundOutline=1;" vertex="1" parent="1">
          <mxGeometry x="600" y="480" width="160" height="80" as="geometry" />
        </mxCell>
        <mxCell id="R-gP6RwH8Rs_ocmitFq0-16" value="Controller" style="shape=process;whiteSpace=wrap;html=1;backgroundOutline=1;" vertex="1" parent="1">
          <mxGeometry x="600" y="560" width="160" height="80" as="geometry" />
        </mxCell>
        <mxCell id="R-gP6RwH8Rs_ocmitFq0-17" value="DB - master&lt;br&gt;- INSERT&amp;nbsp;UPDATE" style="shape=cylinder3;whiteSpace=wrap;html=1;boundedLbl=1;backgroundOutline=1;size=15;fillColor=#d5e8d4;strokeColor=#82b366;" vertex="1" parent="1">
          <mxGeometry x="910" y="360" width="120" height="80" as="geometry" />
        </mxCell>
        <mxCell id="R-gP6RwH8Rs_ocmitFq0-18" value="DB&lt;br&gt;- SELECT" style="shape=cylinder3;whiteSpace=wrap;html=1;boundedLbl=1;backgroundOutline=1;size=15;fillColor=#d5e8d4;strokeColor=#82b366;" vertex="1" parent="1">
          <mxGeometry x="910" y="480" width="120" height="80" as="geometry" />
        </mxCell>
        <mxCell id="R-gP6RwH8Rs_ocmitFq0-19" value="DB&lt;br&gt;- SELECT" style="shape=cylinder3;whiteSpace=wrap;html=1;boundedLbl=1;backgroundOutline=1;size=15;fillColor=#d5e8d4;strokeColor=#82b366;" vertex="1" parent="1">
          <mxGeometry x="910" y="560" width="120" height="80" as="geometry" />
        </mxCell>
        <mxCell id="R-gP6RwH8Rs_ocmitFq0-26" style="edgeStyle=orthogonalEdgeStyle;rounded=0;orthogonalLoop=1;jettySize=auto;html=1;" edge="1" parent="1" source="R-gP6RwH8Rs_ocmitFq0-20" target="R-gP6RwH8Rs_ocmitFq0-23">
          <mxGeometry relative="1" as="geometry" />
        </mxCell>
        <mxCell id="R-gP6RwH8Rs_ocmitFq0-20" value="api&lt;br&gt;getway" style="rhombus;whiteSpace=wrap;html=1;" vertex="1" parent="1">
          <mxGeometry x="190" y="450" width="170" height="180" as="geometry" />
        </mxCell>
        <mxCell id="R-gP6RwH8Rs_ocmitFq0-21" value="public" style="shape=parallelogram;perimeter=parallelogramPerimeter;whiteSpace=wrap;html=1;fixedSize=1;" vertex="1" parent="1">
          <mxGeometry x="60" y="660" width="120" height="60" as="geometry" />
        </mxCell>
        <mxCell id="R-gP6RwH8Rs_ocmitFq0-22" value="admin" style="shape=parallelogram;perimeter=parallelogramPerimeter;whiteSpace=wrap;html=1;fixedSize=1;" vertex="1" parent="1">
          <mxGeometry x="50" y="720" width="120" height="60" as="geometry" />
        </mxCell>
        <mxCell id="R-gP6RwH8Rs_ocmitFq0-23" value="WebSocket" style="shape=process;whiteSpace=wrap;html=1;backgroundOutline=1;fillColor=#ffe6cc;strokeColor=#d79b00;" vertex="1" parent="1">
          <mxGeometry x="320" y="800" width="160" height="80" as="geometry" />
        </mxCell>
        <mxCell id="R-gP6RwH8Rs_ocmitFq0-24" value="WebSocket" style="shape=process;whiteSpace=wrap;html=1;backgroundOutline=1;" vertex="1" parent="1">
          <mxGeometry x="320" y="880" width="160" height="80" as="geometry" />
        </mxCell>
        <mxCell id="R-gP6RwH8Rs_ocmitFq0-25" value="DB: inMemory&lt;br&gt;Redis" style="shape=cylinder3;whiteSpace=wrap;html=1;boundedLbl=1;backgroundOutline=1;size=15;" vertex="1" parent="1">
          <mxGeometry x="525" y="840" width="155" height="80" as="geometry" />
        </mxCell>
      </root>
    </mxGraphModel>
  </diagram>
</mxfile>
